<?xml version="1.0" standalone="no"?>
<!DOCTYPE svg PUBLIC "-//W3C//DTD SVG 20010904//EN"
 "http://www.w3.org/TR/2001/REC-SVG-20010904/DTD/svg10.dtd">
<svg version="1.0" xmlns="http://www.w3.org/2000/svg"
 width="512.000000pt" height="512.000000pt" viewBox="0 0 512.000000 512.000000"
 preserveAspectRatio="xMidYMid meet">
<metadata>
Created by potrace 1.11, written by Peter Selinger 2001-2013
</metadata>
<g transform="translate(0.000000,512.000000) scale(0.100000,-0.100000)"
fill="#000000" stroke="none">
<path d="M2330 5109 c-1054 -92 -1784 -783 -1914 -1809 -45 -360 -21 -606 89
-906 240 -653 936 -1502 1875 -2285 161 -134 181 -138 297 -50 287 217 844
745 1124 1066 663 761 958 1384 924 1950 -21 352 -92 644 -219 910 -300 627
-873 1020 -1626 1115 -121 15 -426 20 -550 9z m-176 -1385 c14 -14 16 -89 16
-674 0 -362 -3 -665 -6 -674 -9 -24 -229 -24 -238 0 -3 9 -6 312 -6 674 0 585
2 660 16 674 12 12 37 16 109 16 72 0 97 -4 109 -16z m1066 6 c121 -14 192
-43 255 -105 86 -84 116 -166 116 -314 -1 -185 -69 -307 -206 -372 -81 -38
-164 -49 -397 -49 l-198 0 -2 -262 -3 -263 -115 0 -115 0 -3 675 c-2 626 -1
676 15 688 21 15 523 17 653 2z"/>
<path d="M2790 3316 l0 -206 193 0 c107 0 210 5 232 11 96 26 142 100 133 214
-7 81 -35 126 -98 158 -41 20 -62 22 -252 25 l-208 4 0 -206z"/>
</g>
</svg>
