<svg xmlns="http://www.w3.org/2000/svg" fill="none" viewBox="0 0 434 512">
  <defs/>
  <path fill="#fff" d="M89 67h282v274H89z"/>
  <path fill="#5CB85C" d="M194 1.09998C88.6 10.3 15.6 79.4 2.60002 182c-4.5 36-2.099998 60.6 8.89998 90.6 24 65.3 93.6 150.2 187.5 228.5 16.1 13.4 18.1 13.8 29.7 5 28.7-21.7 84.4-74.5 112.4-106.6 66.3-76.1 95.8-138.4 92.4-195-2.1-35.2-9.2-64.4-21.9-91-30-62.7-87.3-102-162.6-111.50002-12.1-1.5-42.6-2-55-.9zM176.4 139.6c1.4 1.4 1.6 8.9 1.6 67.4 0 36.2-.3 66.5-.6 67.4-.9 2.4-22.9 2.4-23.8 0-.3-.9-.6-31.2-.6-67.4 0-58.5.2-66 1.6-67.4 1.2-1.2 3.7-1.6 10.9-1.6s9.7.4 10.9 1.6zM283 139c12.1 1.4 19.2 4.3 25.5 10.5 8.6 8.4 11.6 16.6 11.6 31.4-.1 18.5-6.9 30.7-20.6 37.2-8.1 3.8-16.4 4.9-39.7 4.9H240l-.2 26.2-.3 26.3h-23l-.3-67.5c-.2-62.6-.1-67.6 1.5-68.8 2.1-1.5 52.3-1.7 65.3-.2z"/>
  <path fill="#5CB85C" d="M240 180.4V201h19.3c10.7 0 21-.5 23.2-1.1 9.6-2.6 14.2-10 13.3-21.4-.7-8.1-3.5-12.6-9.8-15.8-4.1-2-6.2-2.2-25.2-2.5l-20.8-.4v20.6z"/>
</svg>
